<svg xmlns="http://www.w3.org/2000/svg" xmlns:xlink="http://www.w3.org/1999/xlink" width="475.394" height="800" viewBox="0 0 475.394 800" role="img" artist="Katerina Limpitsouni" source="https://undraw.co/"><defs><linearGradient id="a-50" x1="-145.593" y1="1" x2="-145.593" gradientUnits="objectBoundingBox"><stop offset="0" stop-color="gray" stop-opacity="0.251"/><stop offset="0.535" stop-color="gray" stop-opacity="0.122"/><stop offset="1" stop-color="gray" stop-opacity="0.102"/></linearGradient></defs><g transform="translate(-611.314 -166.689)"><rect width="184" height="54" rx="16" transform="translate(692.856 384.689)" fill="#3b82f6"/><g transform="translate(852.985 369.066)"><path d="M280.552,799.556a.546.546,0,0,1,.115.059c-1.4-3.034-2.714-6.1-3.907-9.219-.141-.365-.271-.744-.413-1.109.011.094.011.188.024.3.036.591.083,1.18.13,1.782.071.932.13,1.877.141,2.821.011.3.011.575.011.873a17.269,17.269,0,0,1-.354,3.423h.047c.3.024.567.036.85.083a11.549,11.549,0,0,1,3.218.919.7.7,0,0,1,.13.071Z" transform="translate(-113.267 -236.194)" fill="url(#a-50)"/><path d="M268.977,409.86c-.126,4.929-1.8,9.7-2.058,14.623,14.515.722,28.833-6.321,43.209-4.161-4.022-2.6-6.165-7.285-7.429-11.9a49.34,49.34,0,0,1-1.417-18.28,8.055,8.055,0,0,1,.18-1.011c.533-2.413,1.913-5.823,1.543-7.718-.487-2.51-2.852-2.013-4.983-1.869a186.679,186.679,0,0,0-19.372,2.5c-1.67.288-17.936,4.351-18.18,3.927a76.552,76.552,0,0,1,7.041,14.506,28.281,28.281,0,0,1,1.465,9.38Z" transform="translate(-124.045 -310.108)" fill="#9f616a"/><path d="M393.515,396.975a21.217,21.217,0,0,0,4.432,4.468c1.1.9,2.229,1.824,3.412,2.653a14.632,14.632,0,0,0,7.257,2.952c3.458.23,10.8-1.8,12.944-4.758a8.582,8.582,0,0,0,1.237-4.956,22.8,22.8,0,0,0-1.192-6.933,38.639,38.639,0,0,0-5.6-10.128c-2.5-3.475-5.286-6.9-9-9a34.9,34.9,0,0,0-3.828-1.761c-2.257-.919-4.5-1.85-6.762-2.772a3.266,3.266,0,0,0-1.227-.325c-1.815.018-2.149,2.789-1.119,4.288,2.058,3.015,6.689,3.854,7.989,7.276a5.186,5.186,0,0,0-4.821,3.737,2.643,2.643,0,0,1-.65,1.508c-.6.478-1.526.208-2.2.569-1.2.641-.677,2.428-.8,3.782a17.7,17.7,0,0,1-1.237,3.4,7.23,7.23,0,0,0,1.164,5.994Z" transform="translate(-392.132 -312.451)" fill="#9f616a"/><path d="M277.474,814.478c-1.117-1.117-2.943-.926-4.5-.68a167.069,167.069,0,0,1-25.319,2.048c-1.062-5.184,2.02-10.228,3.013-15.42a13.9,13.9,0,0,1,1-3.9c1.194-2.292,3.888-3.34,6.416-3.873,4.562-.962,11.7-2.66,14.243,1.954C275.384,800.146,276.362,808.322,277.474,814.478Z" transform="translate(-76 -235.788)" fill="#9f616a"/><path d="M284.6,798.167c3.44,2.347,7.709,3.079,11.844,3.611s8.395.93,12.141,2.772c3.232,1.6,5.957,4.215,9.38,5.362a19.537,19.537,0,0,0,9.741.154c3.845-.722,7.944-2.121,10.02-5.444,1.85-2.952,1.652-6.7,1.4-10.174q-.447-5.89-.876-11.8a5.619,5.619,0,0,0-.731-2.852c-2.78-4.053-9.538,1.7-13.162,1.688-5.732-.009-11.888-3.114-16.023-6.915a4.871,4.871,0,0,0-1.246-.939c-1.634-.731-3.268.623-4.721,1.805-.162.136-.325.271-.487.4-3.349,2.654-7.844,3.2-11.979,4.27s-8.575,3.241-9.858,7.321a6.228,6.228,0,0,0-.2.785C279.09,791.966,281.374,795.965,284.6,798.167Z" transform="translate(-175.889 -239.054)" fill="#090814"/><path d="M343.919,579.941a51.679,51.679,0,0,1-7.082,38.131c-1.97,3.051-4.276,5.915-5.757,9.231a41.954,41.954,0,0,0-2.247,7.316l-6.38,26.408c-1.724,7.125-3.457,14.4-2.94,21.713.361,5.1,1.646,10.83-1.494,14.86a10.947,10.947,0,0,0-1.9,2.6,6.592,6.592,0,0,0-.031,3.432c3.228,19.173,5.622,39.217-.209,57.765-5.286,16.812-5.586,35.439-10.08,52.479-.556,2.11-1.193,4.335-2.791,5.82a9.15,9.15,0,0,1-4.184,1.988c-6.622,1.576-13.614-.27-19.789-3.131-4.34-2.011-9.012-5.538-8.641-10.307.177-2.268,1.5-4.252,2.4-6.347,1.764-4.1,1.905-8.679,2.382-13.117,1.2-11.147,4.63-21.9,7.227-32.8s4.36-22.294,2.164-33.283a291.146,291.146,0,0,0-21.413-65.871,7.944,7.944,0,0,0-1.962-2.95,20.289,20.289,0,0,1-2.776-1.9,8.375,8.375,0,0,1-1.27-3.453c-.965-3.479-3.835-6.045-5.757-9.1-4.855-7.713-3.317-17.6-3.137-26.714.175-8.861-1.1-17.805.352-26.546s6.462-17.681,14.891-20.421c4.176-1.357,8.69-1.049,13.059-.617C299.7,567.42,322.2,571.625,343.919,579.941Z" transform="translate(-144.018 -276.683)" fill="#090814"/><path d="M249.044,634.869a55.349,55.349,0,0,0,1.164,10.246q6.121,34.325,13.044,68.506c.406,1.977.8,3.954,1.336,5.894a47.807,47.807,0,0,0,8.837,17.386c19.237,23.975,20.9,58.794,31.334,87.707.7,1.954,1.408,3.918,2.157,5.849a146.119,146.119,0,0,0,6.435,14.365,4.106,4.106,0,0,0,1.327,1.715,3.936,3.936,0,0,0,2.094.407,61.138,61.138,0,0,0,27.108-6.165,5.615,5.615,0,0,0,2.88-2.393,5.785,5.785,0,0,0,.307-2.758c-.288-5.732-.641-11.672-3.376-16.709a35.654,35.654,0,0,0-6.68-8.1c-.812-17.991-2.591-36.018-6.55-53.584-2.031-8.982-4.54-18.063-9.758-25.654-3.845-5.606-9.361-11.139-8.684-17.9.3-2.969,1.543-6.665-.876-8.413-1.056-.768-2.618-.866-3.333-1.954a3.716,3.716,0,0,1-.47-1.679,41.454,41.454,0,0,1,.857-13.875,73.175,73.175,0,0,0,2.069-9.045c.307-3.088-.217-6.427-2.275-8.734-.126-6.175.045-12.584-.082-18.749a34.77,34.77,0,0,1,.866-10.471c.469-1.616,1.183-3.159,1.543-4.812,1.291-5.931-1.932-13.035,1.9-17.738,1.6-1.954,4.062-2.925,6.156-4.334,4.18-2.789,6.924-7.355,8.45-12.15a67.06,67.06,0,0,0,2.393-14.876,15.313,15.313,0,0,0,.036-3.218,5.888,5.888,0,0,0-.433-1.609c-1.192-2.681-4.4-3.719-7.249-4.4a234.741,234.741,0,0,0-55.354-6.472c-6.9-4.694-10.778-3.016-13.7,1.954a51.407,51.407,0,0,0-3.9,9.523c-1.336,4.035-1.417,26.621-2.717,30.674C244.224,618.576,249.107,629.336,249.044,634.869Z" transform="translate(-143.425 -276.031)" fill="#090814"/><ellipse cx="33.521" cy="33.521" rx="33.521" ry="33.521" transform="translate(117.936 23.389)" fill="#9f616a"/><path d="M262.812,416.875c1.462,1.69,3.422,3.554,5.59,3.01a7.638,7.638,0,0,0,2.175-1.164c3.865-2.49,8.607-3.075,13.154-3.76a194.075,194.075,0,0,0,27.087-6.091,27.629,27.629,0,0,1,8.012-1.63c5.682.03,10.716,3.806,14.277,8.234s6.083,9.608,9.576,14.089c2.489,3.192,5.454,6.006,7.778,9.319,5.869,8.366-17.9,107.859-17.583,109.536,2.226,15.831,3.4,59.9,2.413,68.02a124.417,124.417,0,0,0-32.665-7.76c-7.2-.707-14.542-.8-21.49-2.818-4.34-1.264-8.457-3.263-12.863-4.269a59.3,59.3,0,0,0-10.846-1.108c-8.033-.324-16.122-.645-24.073.539-.644.1-1.428.147-1.813-.377a1.7,1.7,0,0,1-.241-.948,16.029,16.029,0,0,1,2.057-8.532c1.014-1.789,2.423-3.539,2.383-5.594-.074-.958,2-126.23,4.973-131.572,3.461-6.216,6.971-12.561,8.368-19.536.919-4.617.893-9.373,1.555-14.036a6.13,6.13,0,0,1,1.185-3.277c1.135-1.287,3.057-1.471,4.771-1.417a21.122,21.122,0,0,1,6.218,1.149Z" transform="translate(-130.864 -305.09)" fill="#e6e6e6"/><path d="M419.411,471.808c-2.04,2.544-4.167,5.16-7.061,6.665-3.333,1.724-7.253,1.767-11,1.688a262.943,262.943,0,0,1-45.981-5.056c-1.724-.3-20.226-11.787-24.018-16.62-4.512-5.836-15.859-43.289-16.259-45.423a17.377,17.377,0,0,0-5.32-9.568,3.489,3.489,0,0,1-1.264-1.681,2.71,2.71,0,0,1,.3-1.639c1.543-3.438,5.073-5.655,8.734-6.55a37.481,37.481,0,0,1,11.252-.447,26.277,26.277,0,0,1,3.685.979c2.974,8.057,23.7,45.363,24.779,45.307,2.963.183,9.359,1.264,12.044,0,3.05-1.43,13.049-1.487,13.582-1.779,1.209-.7,12.08-5.414,13.5-5.262-.893-.8,19.694-5.976,21.113-8.447.5-.876.6-2.069,1.457-2.6a2.812,2.812,0,0,1,1.87-.217,18.282,18.282,0,0,1,5.656,1.717c2.9,11.354,1.379,23.145-.832,34.654a30.568,30.568,0,0,1-6.231,14.284Z" transform="translate(-298.658 -307.667)" fill="#e6e6e6"/><path d="M226.593,409.3c3.6-2.239,7.829-3.188,12-3.949a25.281,25.281,0,0,1,7.633-.549c2.359.294,4.624,1.206,7,1.338,3.333.186,6.527-1.166,9.747-2.047s6.938-1.218,9.653.73a4.167,4.167,0,0,0,2.1,1.116,3.677,3.677,0,0,0,2.171-1.064,12.367,12.367,0,0,1,15.414.812c6.146,5.763,5.451,17.023,12.654,21.394,1.986,1.2,4.523,1.839,5.683,3.854a14.235,14.235,0,0,0,.98,1.854,5.02,5.02,0,0,0,1.732,1.234,33.645,33.645,0,0,1,5.937,3.413,8.49,8.49,0,0,1,3.417,5.728,10.791,10.791,0,0,1-1.049,4.817,45.2,45.2,0,0,1-43.929,28.086,6.953,6.953,0,0,1-4.6-1.436,8.684,8.684,0,0,1-1.609-2.657c-3.386-7.1-9.746-12.341-13.785-19.091-2.406-4.022-3.952-8.522-6.457-12.485-3.8-6.007-9.574-10.444-15.228-14.75-3.188-2.428-6.738-4.976-10.743-4.806-3.569.152-6.167.345-4.858-4.035A14.02,14.02,0,0,1,226.6,409.3Z" transform="translate(-88.985 -305.932)" fill="#e6e6e6"/><path d="M226.593,409.3c3.6-2.239,7.829-3.188,12-3.949a25.281,25.281,0,0,1,7.633-.549c2.359.294,4.624,1.206,7,1.338,3.333.186,6.527-1.166,9.747-2.047s6.938-1.218,9.653.73a4.167,4.167,0,0,0,2.1,1.116,3.677,3.677,0,0,0,2.171-1.064,12.367,12.367,0,0,1,15.414.812c6.146,5.763,5.451,17.023,12.654,21.394,1.986,1.2,4.523,1.839,5.683,3.854a14.235,14.235,0,0,0,.98,1.854,5.02,5.02,0,0,0,1.732,1.234,33.645,33.645,0,0,1,5.937,3.413,8.49,8.49,0,0,1,3.417,5.728,10.791,10.791,0,0,1-1.049,4.817,45.2,45.2,0,0,1-43.929,28.086,6.953,6.953,0,0,1-4.6-1.436,8.684,8.684,0,0,1-1.609-2.657c-3.386-7.1-9.746-12.341-13.785-19.091-2.406-4.022-3.952-8.522-6.457-12.485-3.8-6.007-9.574-10.444-15.228-14.75-3.188-2.428-6.738-4.976-10.743-4.806-3.569.152-6.167.345-4.858-4.035A14.02,14.02,0,0,1,226.6,409.3Z" transform="translate(-88.985 -305.932)" opacity="0.05"/><path d="M243.543,823.971c2.428,2.266,5.768,3.259,9.008,3.962a162.394,162.394,0,0,0,22.423,2.771c2.437.18,4.884.37,7.321.56,7.149.541,14.309,1.093,21.49,1.119a148.175,148.175,0,0,0,26.422-2.284,2.242,2.242,0,0,0,2.413-2.681c-.155-8.93-6.122-15.867-8.127-24.571-.831-3.575-2.363,2.49-2.651,2.823-1.778,2.023-3.124,2.952-5.823,3.1-7.375.407-15.635-4.081-21.49-8.071a27.509,27.509,0,0,0-3.981-2.464,11.715,11.715,0,0,0-3.218-.919,19.457,19.457,0,0,0-10.968,2.22c-4.4,2.184-8.274,5.327-12.628,7.574a35.5,35.5,0,0,1-11.319,3.584c-3.99.55-8.757.813-10.8,4.269a.033.033,0,0,0-.009.028C239.905,817.85,241.124,821.713,243.543,823.971Z" transform="translate(-123.38 -234.761)" fill="#090814"/><path d="M266.1,372.864a6.2,6.2,0,0,1-2.316.862,7.47,7.47,0,0,1-6.188-.926Z" transform="translate(-76.631 -311.3)" opacity="0.1"/><path d="M79.959,53.384a22.953,22.953,0,0,1-12.578,6.6c-4.663,1-9.78,1.315-13.511,4.239C49.63,67.6,47.765,74.018,42.563,75.445a12.4,12.4,0,0,1-6.77-.537A43.812,43.812,0,0,1,14.6,60.776,18.149,18.149,0,0,0,9.718,55.9a35.3,35.3,0,0,1-3.364-1.64,9.157,9.157,0,0,1-2.742-3.575A34.752,34.752,0,0,1,1.181,26.274c1.3-4.82,3.646-9.285,5.031-14.135S14-1.931,15.5.359s3.421,4.424,4.241,7.068c1.6,5.2.155,10.43,4.222,14.041,2.516,2.233,7.066,3.731,8.776.848.678-1.117.635-2.528,1.216-3.689,1.149-2.262,4.452-2.713,6.642-1.414a10.19,10.19,0,0,1,4.155,6.162c3.292,11.137,8.9,18.147,20.818,13.383,4.438-1.781,9.667-2.982,13.935.07C85.132,40.849,83.987,48.806,79.959,53.384Z" transform="translate(191.393 85.283) rotate(-173)" fill="#090814"/></g><g transform="translate(728.254 216.59)"><circle cx="55.671" cy="55.671" r="55.671" transform="translate(0.556 0.556)" fill="#fff"/><path d="M392.9,300.289a56.227,56.227,0,1,1,56.227-56.227A56.29,56.29,0,0,1,392.9,300.289Zm0-111.342a55.115,55.115,0,1,0,55.115,55.115A55.178,55.178,0,0,0,392.9,188.947Z" transform="translate(-336.673 -187.836)" fill="#090814"/><path d="M431.613,319.344a6.191,6.191,0,0,1-4.954-2.478l-15.188-20.251a6.192,6.192,0,0,1,9.908-7.431l9.936,13.248,25.521-38.28a6.193,6.193,0,1,1,10.305,6.87l-30.376,45.564a6.2,6.2,0,0,1-4.981,2.756Z" transform="translate(-382.981 -234.144)" fill="#3b82f6"/></g><g transform="translate(772.935 335.912)"><path d="M.007,21.257A25.421,25.421,0,0,1,7.2,7.138,25.072,25.072,0,0,1,29.764.513c.686.143.6,1.242-.1,1.1a24.294,24.294,0,0,0-14.6,1.5A23.975,23.975,0,0,0,1.1,21.354C1,22.052-.1,21.96.007,21.257Z" transform="translate(0 34.262) rotate(-69)" fill="#090814"/><path d="M1.236.088l9.025,5.2a.61.61,0,0,1,.045.964L1.014,12.977c-.629.455-1.414-.471-.78-.93L9.527,5.32l.045.964L.546,1.087C-.131.7.563-.3,1.236.088Z" transform="translate(3.591 9.887) rotate(-70)" fill="#090814"/></g><g transform="translate(881.682 173.016)"><ellipse cx="6.041" cy="8.684" rx="6.041" ry="8.684" transform="matrix(-0.144, -0.99, 0.99, -0.144, 1.74, 93.907)" fill="#d6d6e3"/><ellipse cx="6.041" cy="8.684" rx="6.041" ry="8.684" transform="matrix(-0.588, -0.809, 0.809, -0.588, 51.29, 60.242)" fill="#3b82f6"/><ellipse cx="5.488" cy="3.818" rx="5.488" ry="3.818" transform="translate(68.204 11.034) rotate(-90.433)" fill="#3b82f6"/><ellipse cx="5.488" cy="3.818" rx="5.488" ry="3.818" transform="translate(68.329 74.603) rotate(-90.433)" fill="#d6d6e3"/><ellipse cx="5.488" cy="3.818" rx="5.488" ry="3.818" transform="translate(30.317 99.802) rotate(-90.433)" fill="#3b82f6"/><ellipse cx="6.041" cy="8.684" rx="6.041" ry="8.684" transform="matrix(-0.144, -0.99, 0.99, -0.144, 28.114, 18.262)" fill="#f2f2f2"/><ellipse cx="5.488" cy="3.818" rx="5.488" ry="3.818" transform="translate(26.458 50.251) rotate(-90.433)" fill="#f2f2f2"/></g><g transform="translate(611.314 166.689)"><ellipse cx="6.041" cy="8.684" rx="6.041" ry="8.684" transform="matrix(-0.144, 0.99, -0.99, -0.144, 18.927, 8.396)" fill="#d6d6e3"/><ellipse cx="6.041" cy="8.684" rx="6.041" ry="8.684" transform="matrix(-0.588, 0.809, -0.809, -0.588, 65.341, 49.769)" fill="#3b82f6"/><ellipse cx="5.488" cy="3.818" rx="5.488" ry="3.818" transform="translate(75.84 88.826) rotate(90.433)" fill="#3b82f6"/><ellipse cx="5.488" cy="3.818" rx="5.488" ry="3.818" transform="translate(75.964 25.257) rotate(90.433)" fill="#f2f2f2"/><ellipse cx="5.488" cy="3.818" rx="5.488" ry="3.818" transform="translate(37.953 0.058) rotate(90.433)" fill="#3b82f6"/><ellipse cx="6.041" cy="8.684" rx="6.041" ry="8.684" transform="matrix(-0.144, 0.99, -0.99, -0.144, 45.301, 84.04)" fill="#d6d6e3"/><ellipse cx="5.488" cy="3.818" rx="5.488" ry="3.818" transform="translate(34.093 49.609) rotate(90.433)" fill="#f2f2f2"/></g></g></svg>